# xmcd
#
# Track frame offsets: 
#        150
#        29633
#        54077
#        79180
#        106930
#        130180
#        160755
#        188593
#        215123
#        238461
#        261922
#        289336
#        324740
#
# Disc length: 4699 seconds
#
# Revision: 0
# Processed by: cddbd v1.5.2PL0 Copyright (c) Steve Scherf et al.
# Submitted via: ExactAudioCopy v0.95b3
#
DISCID=c112590d
DTITLE=Various Artist - Rare80 The Best Of Volume 1 (1983-1988) [CD2] [RA0005
DTITLE=48]
DYEAR=2013
DGENRE=Pop
TTITLE0=Lian Ross - Say You'll Never (DJ Alternative Mix)
TTITLE1=Milou - Sentimental Lover (Original Version)
TTITLE2=New Romantique - Shy Like An Angel (Extended Version)
TTITLE3=Ivan - Fotonovela (Extended Version)
TTITLE4=Danuta - Touch My Heart (Extended Version)
TTITLE5=Roger Meno - I Find The Way (Extended Version)
TTITLE6=Night Society - Hold Me Tight (Tonight) (Original Version)
TTITLE7=The Hurricanes - Only One Night (Extended Version)
TTITLE8=Elvin - You Set My Heart On Fire (Remix)
TTITLE9=Prime Time - Ocean Of Crime (We're Movin' On) (Single Version)
TTITLE10=Rewind - Rosalie (Pop and Go!) (Vocal Version)
TTITLE11=Bolero - I Wish (Extended Version)
TTITLE12=Rose - Magic Carillon (Extended Version)
EXTD=
EXTT0=
EXTT1=
EXTT2=
EXTT3=
EXTT4=
EXTT5=
EXTT6=
EXTT7=
EXTT8=
EXTT9=
EXTT10=
EXTT11=
EXTT12=
PLAYORDER=
